<svg id="Layer_1" data-name="Layer 1" xmlns="http://www.w3.org/2000/svg" xmlns:xlink="http://www.w3.org/1999/xlink" viewBox="0 0 363.82 230.52"><defs><style>.cls-1{fill:url(#linear-gradient);}.cls-2{fill:url(#linear-gradient-2);}.cls-3{fill:url(#linear-gradient-3);}.cls-4{fill:url(#linear-gradient-4);}.cls-5{fill:url(#linear-gradient-5);}</style><linearGradient id="linear-gradient" x1="51.53" y1="254.49" x2="51.53" y2="161.03" gradientUnits="userSpaceOnUse"><stop offset="0" stop-color="#067f59"/><stop offset="0.36" stop-color="#229865"/><stop offset="0.76" stop-color="#3caf70"/><stop offset="1" stop-color="#46b874"/></linearGradient><linearGradient id="linear-gradient-2" x1="143.47" y1="257.13" x2="143.47" y2="161.03" xlink:href="#linear-gradient"/><linearGradient id="linear-gradient-3" x1="251.98" y1="254.49" x2="251.98" y2="161.03" xlink:href="#linear-gradient"/><linearGradient id="linear-gradient-4" x1="353.56" y1="254.49" x2="353.56" y2="161.03" xlink:href="#linear-gradient"/><linearGradient id="linear-gradient-5" x1="197.47" y1="130.79" x2="197.47" y2="26.61" xlink:href="#linear-gradient"/></defs><path class="cls-1" d="M15.56,254.49V161h30.1c30.62,0,41.85,19.53,41.85,47,0,26.93-11.23,46.47-41.85,46.47Zm30.63-68.38H44.47v43.3h1.72c7.65,0,12.41-8.18,12.41-21.39C58.6,194.16,53.84,186.11,46.19,186.11Z" transform="translate(-15.56 -26.61)"/><path class="cls-2" d="M108.75,218.06V161h28.92v54.52c0,8.84,1.05,13.73,5.94,13.73s6.07-4.89,6.07-13.73V161h28.51v57c0,22.18-10.56,39.07-35.11,39.07S108.75,240.24,108.75,218.06Z" transform="translate(-15.56 -26.61)"/><path class="cls-3" d="M242.35,254.49H214.1L196.8,161H226l6.33,54.65H233L239.71,161h25.74l7.26,54.65h.4l6.2-54.65h27.86l-17.56,93.46H261.36l-9.37-52h-.4Z" transform="translate(-15.56 -26.61)"/><path class="cls-4" d="M327.76,161h49.9v25.21H355.08v9.37h20.47V219H355.08v9.9h24.29v25.61H327.76Z" transform="translate(-15.56 -26.61)"/><path class="cls-5" d="M214,122.3c-.13,2.77-.24,5.25-.39,8.49l-7.05-10.18c-2-2.86-4-5.66-5.9-8.6-.5-.8-.88-2.33-.46-3,4.16-6.33,8.5-12.55,13.37-18.68.14,2.44.27,4.88.39,7h31.52c-1,1.72-2.11,3.71-3.25,5.69-2.89,5-5.87,10-8.64,15.17-1.56,2.89-3.68,4.23-7,4.09C222.51,122.16,218.39,122.3,214,122.3ZM194.59,31.48c4.06,6.78,7.93,13.67,12,20.46.93,1.58.48,2.3-1,3-1.78.91-3.46,2-5.6,3.3,8.06.66,15.53,1.33,23,1.82a3.71,3.71,0,0,0,3-1.27C229.4,52,232.63,45,236.25,37.34l-7.63,4.23c-2.39-4.09-4.51-8.19-7.11-11.94a7.05,7.05,0,0,0-4.71-2.85c-8.63-.28-17.29-.13-26.2-.13A40.9,40.9,0,0,1,194.59,31.48ZM172.86,81.64l7.71,4.21c-3.66-7.68-6.91-14.62-10.31-21.48a3.11,3.11,0,0,0-2.43-1.21c-4.22.18-8.44.53-12.65.88-3.35.28-6.7.64-10.73,1l7.33,4.41c-2.29,4-4.41,7.72-6.59,11.43-1.29,2.18-1.62,4.29-.26,6.61,4.34,7.36,8.6,14.76,12.86,22.09C161.51,99.49,167.84,91,172.86,81.64ZM195,42.36a3.48,3.48,0,0,0,.11-2.79A47.7,47.7,0,0,0,191.21,33c-4.49-6.35-13.73-7.17-17.87-1.21-4,5.74-7.16,12-10.81,18.32l21.14,12.19C187.6,55.42,191.34,48.92,195,42.36ZM218.48,73c4.05,6.92,7.91,13.58,11.85,20.18a2.49,2.49,0,0,0,1.83,1,63.54,63.54,0,0,0,8.73-.13c7.44-.88,12.2-8.77,9-15.22-3-6-6.66-11.75-10.24-18Zm-26.43,26.9c0-.57-1.42-1.58-2.19-1.59-6.78-.13-13.55-.12-20.32,0a3.46,3.46,0,0,0-2.6,1.1c-1.75,3.19-3.71,6.39-4.69,9.84-1.65,5.84,2.73,12.52,8.62,12.94,6.91.48,13.88.11,21.28.11C192.15,114.57,192.2,107.24,192.05,99.92Z" transform="translate(-15.56 -26.61)"/></svg>