<svg xmlns="http://www.w3.org/2000/svg" viewBox="0 0 1555.2 2354.29"><defs><style>.cls-1{fill:#39b54a;}.cls-2{fill:#fff;}</style></defs><g id="Layer_2" data-name="Layer 2"><g id="Layer_1-2" data-name="Layer 1"><rect class="cls-1" width="1555.2" height="2354.29"/><path class="cls-2" d="M847.23,1031.13c-.55,10.19-1,19.33-1.66,31.28l-30-37.51c-8.51-10.55-17-20.85-25.11-31.69-2.13-2.94-3.74-8.58-2-11,17.71-23.33,36.18-46.24,56.91-68.83.59,9,1.15,18,1.66,25.79H981.18c-4.25,6.34-9,13.67-13.83,21-12.3,18.42-25,36.84-36.77,55.89-6.64,10.65-15.67,15.59-29.8,15.07C883.45,1030.6,865.91,1031.13,847.23,1031.13ZM764.62,696.49c17.28,25,33.75,50.36,51.07,75.38,4,5.82,2,8.47-4.26,11.06-7.57,3.35-14.72,7.37-23.83,12.16,34.3,2.43,66.1,4.9,97.89,6.7a17,17,0,0,0,12.77-4.69c14.51-25,28.26-50.81,43.67-79l-32.48,15.58c-10.17-15.06-19.19-30.17-30.26-44a31.05,31.05,0,0,0-20-10.5c-36.73-1-73.59-.48-111.52-.48A157.43,157.43,0,0,1,764.62,696.49ZM672.13,881.3,705,896.81c-15.58-28.3-29.41-53.87-43.89-79.15a14,14,0,0,0-10.34-4.45c-18,.67-35.92,2-53.84,3.24-14.26,1-28.51,2.36-45.67,3.69l31.2,16.25c-9.75,14.74-18.77,28.44-28,42.12-5.49,8-6.89,15.81-1.1,24.34,18.47,27.12,36.6,54.4,54.73,81.41,15.78-37.19,42.72-68.46,64.09-103Zm94.23-144.74a11.24,11.24,0,0,0,.47-10.28,172.82,172.82,0,0,0-16.6-24.2c-19.11-23.4-58.44-26.42-76.06-4.45-17,21.15-30.47,44.2-46,67.5l90,44.92C734.87,784.69,750.78,760.75,766.36,736.56Zm99.94,112.9c17.23,25.5,33.66,50,50.43,74.36a11.12,11.12,0,0,0,7.79,3.69,313.39,313.39,0,0,0,37.16-.48c31.66-3.25,51.92-32.32,38.3-56.08-12.77-22.11-28.34-43.3-43.58-66.32ZM753.81,948.58c0-2.09-6-5.81-9.33-5.86q-43.26-.71-86.48,0a15.92,15.92,0,0,0-11.07,4.07c-7.44,11.75-15.79,23.54-20,36.25-7,21.52,11.62,46.14,36.69,47.68,29.41,1.77,59.08.41,90.57.41,0-28.48.21-55.49-.42-82.46Z"/><path class="cls-2" d="M540.4,1410.73V1141.45h41.38c42.09,0,57.52,56.26,57.52,135.38,0,77.56-15.43,133.84-57.52,133.84Zm42.09-197h-2.36V1338.5h2.36c10.55,0,17.06-23.56,17.06-61.61,0-39.89-6.54-63.11-17.06-63.11Z"/><path class="cls-2" d="M668.5,1305.8V1141.45h39.75v157c0,25.46,1.45,39.55,8.17,39.55s8.34-14.09,8.34-39.55v-157h39.18v164.18c0,63.88-14.52,112.53-48.27,112.53S668.5,1369.69,668.5,1305.8Z"/><path class="cls-2" d="M852.14,1410.73H813.31l-23.78-269.28h40.14l8.7,157.41h.92l9.23-157.41h35.41l10,157.41h.55L903,1141.45h38.29l-24.1,269.19H878.34l-12.89-149.81h-.55Z"/><path class="cls-2" d="M969.55,1141.45h68.59v72.61h-31v27h28.16v67.44h-28.14V1337h33.39v73.76H969.57Z"/></g></g></svg>